<svg fill="#000000" width="800px" height="800px" viewBox="0 0 24 24" role="img" xmlns="http://www.w3.org/2000/svg"><path d="M23,12A11,11,0,1,0,10.279,22.865h0a11.08,11.08,0,0,0,3.436,0h0A10.952,10.952,0,0,0,23,12ZM10.859,21.935v-6.9a.5.5,0,0,0-.5-.5H8.193V12.5h2.166a.5.5,0,0,0,.5-.5V9.686c0-2.278,1.264-3.585,3.459-3.585a15.392,15.392,0,0,1,1.858.137V7.89h-.824l-.019,0a2,2,0,0,0-2.181,1.735,1.8,1.8,0,0,0-.011.4V12a.5.5,0,0,0,.5.5H15.97l-.312,2.035H13.641a.5.5,0,0,0-.5.5v6.9A10.124,10.124,0,0,1,10.859,21.935Zm3.282-.166V15.535h1.946a.5.5,0,0,0,.5-.425l.465-3.035a.5.5,0,0,0-.494-.575H14.141V10.016a1.267,1.267,0,0,1,.308-.821,1.218,1.218,0,0,1,.9-.3h1.324a.5.5,0,0,0,.5-.5V5.806a.5.5,0,0,0-.42-.494A16.661,16.661,0,0,0,14.325,5.1c-2.754,0-4.466,1.757-4.466,4.585V11.5H7.693a.5.5,0,0,0-.5.5v3.035a.5.5,0,0,0,.5.5H9.859v6.234a10,10,0,1,1,4.282,0Z"/></svg>