<svg fill="#000000" width="800px" height="800px" viewBox="0 0 24 24" role="img" xmlns="http://www.w3.org/2000/svg"><path d="M21.938,7.71a7.329,7.329,0,0,0-.456-2.394,4.615,4.615,0,0,0-1.1-1.694,4.61,4.61,0,0,0-1.7-1.1,7.318,7.318,0,0,0-2.393-.456C15.185,2.012,14.817,2,12,2s-3.185.012-4.29.062a7.329,7.329,0,0,0-2.394.456,4.615,4.615,0,0,0-1.694,1.1,4.61,4.61,0,0,0-1.1,1.7A7.318,7.318,0,0,0,2.062,7.71C2.012,8.814,2,9.182,2,12s.012,3.186.062,4.29a7.329,7.329,0,0,0,.456,2.394,4.615,4.615,0,0,0,1.1,1.694,4.61,4.61,0,0,0,1.7,1.1,7.318,7.318,0,0,0,2.393.456c1.1.05,1.472.062,4.29.062s3.186-.012,4.29-.062a7.329,7.329,0,0,0,2.394-.456,4.9,4.9,0,0,0,2.8-2.8,7.318,7.318,0,0,0,.456-2.393c.05-1.1.062-1.472.062-4.29S21.988,8.814,21.938,7.71Zm-1,8.534a6.351,6.351,0,0,1-.388,2.077,3.9,3.9,0,0,1-2.228,2.229,6.363,6.363,0,0,1-2.078.388C15.159,20.988,14.8,21,12,21s-3.159-.012-4.244-.062a6.351,6.351,0,0,1-2.077-.388,3.627,3.627,0,0,1-1.35-.879,3.631,3.631,0,0,1-.879-1.349,6.363,6.363,0,0,1-.388-2.078C3.012,15.159,3,14.8,3,12s.012-3.159.062-4.244A6.351,6.351,0,0,1,3.45,5.679a3.627,3.627,0,0,1,.879-1.35A3.631,3.631,0,0,1,5.678,3.45a6.363,6.363,0,0,1,2.078-.388C8.842,3.012,9.205,3,12,3s3.158.012,4.244.062a6.351,6.351,0,0,1,2.077.388,3.627,3.627,0,0,1,1.35.879,3.631,3.631,0,0,1,.879,1.349,6.363,6.363,0,0,1,.388,2.078C20.988,8.841,21,9.2,21,12S20.988,15.159,20.938,16.244Z"/><path d="M17.581,5.467a.953.953,0,1,0,.952.952A.954.954,0,0,0,17.581,5.467Z"/><path d="M12,7.073A4.927,4.927,0,1,0,16.927,12,4.932,4.932,0,0,0,12,7.073Zm0,8.854A3.927,3.927,0,1,1,15.927,12,3.932,3.932,0,0,1,12,15.927Z"/></svg>